<?xml version="1.0" encoding="utf-8"?><!-- Uploaded to: SVG Repo, www.svgrepo.com, Generator: SVG Repo Mixer Tools -->
<svg width="800px" height="800px" viewBox="0 0 24 24" fill="none" xmlns="http://www.w3.org/2000/svg">
<path d="M4 4C4 3.44772 4.44772 3 5 3H14H14.5858C14.851 3 15.1054 3.10536 15.2929 3.29289L19.7071 7.70711C19.8946 7.89464 20 8.149 20 8.41421V20C20 20.5523 19.5523 21 19 21H5C4.44772 21 4 20.5523 4 20V4Z" stroke="#200E32" stroke-width="2" stroke-linecap="round"/>
<path d="M20 8H15V3" stroke="#200E32" stroke-width="2" stroke-linecap="round" stroke-linejoin="round"/>
<path d="M9 13H8C7.44772 13 7 13.4477 7 14V16C7 16.5523 7.44772 17 8 17H8.5C9.05228 17 9.5 16.5523 9.5 16V15.5" stroke="#200E32" stroke-width="1.5" stroke-linecap="round" stroke-linejoin="round"/>
<path d="M9 15.5H9.5" stroke="#200E32" stroke-width="1.5" stroke-linecap="round" stroke-linejoin="round"/>
<path d="M12 13V17" stroke="#200E32" stroke-width="1.5" stroke-linecap="round" stroke-linejoin="round"/>
<path d="M15 17V13L17 13" stroke="#200E32" stroke-width="1.5" stroke-linecap="round" stroke-linejoin="round"/>
<path d="M15.5 15H16.5" stroke="#200E32" stroke-width="1.5" stroke-linecap="round" stroke-linejoin="round"/>
</svg>