<svg width="156" height="156" fill="none" xmlns="http://www.w3.org/2000/svg"><path fill-rule="evenodd" clip-rule="evenodd" d="M78 156c43.078 0 78-34.922 78-78S121.078 0 78 0 0 34.922 0 78s34.922 78 78 78ZM21.47 93.532c3.375 11.259 14.668 14.322 24.915 10.678C41.977 99.15 39 89.532 39 78.5c0-2.68.176-5.277.505-7.745C40.489 72.168 41.696 73 43 73c3.314 0 6-5.373 6-12 0-3.53-.763-6.706-1.976-8.901C48.974 50.116 51.172 49 53.5 49 61.508 49 68 62.208 68 78.5c0 4.413-.476 8.6-1.33 12.36a29.087 29.087 0 0 1 23.855.825C89.55 87.717 89 83.239 89 78.5c0-3.826.358-7.481 1.01-10.836C91.085 70.882 92.92 73 95 73c3.314 0 6-5.373 6-12 0-4.199-1.078-7.893-2.71-10.038C99.905 49.695 101.662 49 103.5 49c8.008 0 14.5 13.208 14.5 29.5 0 11.34-3.145 21.186-7.758 26.123 9.897 2.966 20.417-.293 23.653-11.091a58.674 58.674 0 0 0-1.996-39.306 58.687 58.687 0 0 0-21.613-26.336c-5.437-3.633-11.411.353-17.667 4.527C87.769 35.652 82.751 39 77.683 39s-10.087-3.348-14.936-6.583c-6.256-4.174-12.23-8.16-17.666-4.527a58.683 58.683 0 0 0-23.61 65.642Zm34.063 46.674c-11.758-4.87-11.742-20.016-2.743-29.016l4.694-4.694c11.325-11.325 29.687-11.325 41.012 0l4.694 4.694c9 9 9.016 24.146-2.743 29.016a58.683 58.683 0 0 1-44.914 0Z" fill="#000"/></svg>